:SAMPLES-PER-SECOND 30
:FULLY-SPECIFIED
:DEGREES
280
root  -5.19949 35.7471 -4.13606 13.5262 -75.3856 -17.565
RightUpLeg  24.0422 0.754488 8.83271
RightLeg  24.8133 -6.40058 -3.44552
RightFoot  -22.2036 0.779683 10.0577
RightToes  7.56698e-010 0 -3.6325e-017
Spine  6.98307 1.83448 10.0849
Spine1  12.6041 6.83485 -13.2098
HEad  -16.1609 -8.3604 14.7573
LeftShoulder1  4.20925 -10.9295 -22.8896
LeftArm  -21.1856 -1.28424 -39.1827
LeftForeArm  15.461 7.35202 -8.76489
LeftHand  -0.885375 0.0446546 19.2351
RightShoulder  1.75501 4.04839 16.601
RightArm  -54.509 26.626 34.0624
RightForeArm  123.152 72.4061 141.87
RightHand  -1.30553 3.88383 -16.4998
LeftUpLeg  -31.6983 -0.227571 -8.66919
LeftLeg  52.0853 5.34626 7.78703
LeftFoot  -7.50414 -0.238698 8.11041
LeftToes  -3.13779e-010 -2.47553e-011 -5.36621e-011
281
root  -4.91414 36.9304 -3.96882 13.368 -78.6437 -17.2204
RightUpLeg  19.3501 0.786774 5.76556
RightLeg  29.4891 -6.13621 -3.94244
RightFoot  -10.8716 -0.103013 11.3976
RightToes  7.56698e-010 0 -3.6325e-017
Spine  8.42977 1.66592 10.8159
Spine1  11.0028 7.12104 -15.4956
HEad  -14.2797 -5.15487 13.3063
LeftShoulder1  4.12197 -10.9524 -22.1998
LeftArm  -21.9336 -9.01026 -42.6791
LeftForeArm  14.9969 7.30934 -8.49904
LeftHand  -0.999988 -0.502788 19.7358
RightShoulder  1.89861 4.48064 17.1959
RightArm  -46.0231 26.4051 39.846
RightForeArm  69.1459 78.6486 84.1392
RightHand  -1.45172 5.30191 -15.9992
LeftUpLeg  -28.4424 4.08585 -8.87371
LeftLeg  44.4001 4.09209 4.77665
LeftFoot  -1.37486 -0.675564 7.88572
LeftToes  -3.13779e-010 -2.47553e-011 -5.36621e-011
282
root  -4.39635 38.5315 -3.67055 12.0899 -80.969 -15.6398
RightUpLeg  11.705 -0.0170065 2.5444
RightLeg  35.8717 -5.16544 -4.29136
RightFoot  6.56685 -1.21508 8.43833
RightToes  7.56698e-010 0 -3.6325e-017
Spine  10.6119 0.630429 9.95604
Spine1  8.77264 5.44089 -14.7356
HEad  -11.79 0.170924 9.22108
LeftShoulder1  3.98098 -11.0334 -20.9991
LeftArm  -22.8117 -16.6518 -47.1171
LeftForeArm  13.7616 7.34262 -7.79407
LeftHand  -1.08801 -1.17873 19.2946
RightShoulder  1.95113 4.87467 16.6579
RightArm  -37.6578 29.6795 45.1513
RightForeArm  14.0449 63.9416 22.723
RightHand  -1.77775 7.87517 -15.7597
LeftUpLeg  -23.114 6.9627 -8.71143
LeftLeg  31.5827 0.918952 1.02725
LeftFoot  6.35237 -0.320042 2.2215
LeftToes  -3.13779e-010 -2.47553e-011 -5.36621e-011
283
root  -3.84972 39.8911 -3.42923 11.0592 -79.9394 -14.1472
RightUpLeg  3.1963 -2.80581 1.72007
RightLeg  42.1825 -7.5798 -7.65241
RightFoot  19.5918 -0.627723 2.61797
RightToes  7.56698e-010 0 -3.6325e-017
Spine  12.3535 -1.34382 6.86456
Spine1  7.48764 1.2958 -8.43367
HEad  -10.7621 6.50717 3.13493
LeftShoulder1  3.93283 -11.4095 -19.9138
LeftArm  -22.8263 -23.9391 -50.2714
LeftForeArm  11.7297 6.21015 -7.45766
LeftHand  -1.28502 -2.28225 19.5046
RightShoulder  1.87059 5.10809 14.9357
RightArm  -31.0528 37.493 47.9148
RightForeArm  3.65951 38.3159 8.39654
RightHand  -2.28211 9.71046 -17.7643
LeftUpLeg  -17.8704 5.55091 -7.19111
LeftLeg  19.523 -3.01651 -0.985102
LeftFoot  12.1555 2.00151 -10.1135
LeftToes  -3.13779e-010 -2.47553e-011 -5.36621e-011
284
root  -3.45942 40.9209 -3.1888 12.4799 -78.3086 -14.8476
RightUpLeg  -5.29698 -4.89581 2.27184
RightLeg  47.11 -12.0414 -13.7926
RightFoot  21.7834 0.395252 -0.889614
RightToes  7.56698e-010 0 -3.6325e-017
Spine  13.5641 -2.88195 3.08191
Spine1  6.64871 -2.91457 0.205479
HEad  -11.0872 12.3655 -3.29544
LeftShoulder1  3.94161 -12.1053 -18.7087
LeftArm  -21.9079 -29.9676 -50.5553
LeftForeArm  9.61075 -2.19157 -7.75272
LeftHand  -1.68685 -4.00542 20.9067
RightShoulder  1.71944 5.19431 12.7772
RightArm  -27.4917 47.0582 48.6325
RightForeArm  -0.804025 13.2478 4.6648
RightHand  -2.47246 9.17911 -19.8589
LeftUpLeg  -13.8205 1.08852 -4.65806
LeftLeg  13.5542 -4.78963 -1.20146
LeftFoot  11.5447 3.89076 -19.5665
LeftToes  -3.13779e-010 -2.47553e-011 -5.36621e-011
285
root  -3.27459 41.6521 -2.86891 10.7393 -79.2527 -12.512
RightUpLeg  -13.1277 -3.96544 1.72663
RightLeg  48.5171 -14.0924 -16.7157
RightFoot  17.8471 0.33457 -0.729053
RightToes  7.56698e-010 0 -3.6325e-017
Spine  14.7018 -3.30357 -0.704732
Spine1  5.79094 -5.19105 6.11802
HEad  -12.1096 17.2628 -8.23547
LeftShoulder1  3.80187 -12.5877 -16.9369
LeftArm  -20.0114 -34.1471 -48.0188
LeftForeArm  4.89561 -18.5794 -7.21072
LeftHand  -2.03675 -5.25159 22.2852
RightShoulder  1.61393 5.17901 11.4691
RightArm  -29.0572 53.7817 48.7505
RightForeArm  -0.206097 -3.57626 4.33227
RightHand  -2.14606 7.75525 -19.0929
LeftUpLeg  -10.4798 -2.83736 -3.83138
LeftLeg  15.7003 -4.36487 -0.716947
LeftFoot  4.97832 2.67436 -18.2893
LeftToes  -3.13779e-010 -2.47553e-011 -5.36621e-011
286
root  -3.28902 41.9108 -2.46068 7.65707 -82.5028 -9.59892
RightUpLeg  -19.236 -2.20895 0.502929
RightLeg  45.2905 -11.8908 -12.9299
RightFoot  14.8326 -1.05485 4.95472
RightToes  7.56698e-010 0 -3.6325e-017
Spine  15.6708 -3.06104 -2.9125
Spine1  4.88974 -5.5971 8.099
HEad  -13.5874 21.1756 -11.0051
LeftShoulder1  3.4486 -12.2945 -14.9755
LeftArm  -25.2834 -36.7426 -43.7294
LeftForeArm  4.86143 -37.8726 -8.06266
LeftHand  -2.02528 -4.99271 22.6789
RightShoulder  1.64194 5.17828 11.8281
RightArm  -27.5533 55.0438 48.7718
RightForeArm  1.07647 -6.5609 4.33257
RightHand  -1.89419 7.34857 -17.4752
LeftUpLeg  -5.83365 -5.59533 -4.6223
LeftLeg  21.8156 -0.316274 0.227082
LeftFoot  -1.45918 0.873898 -10.1719
LeftToes  -3.13779e-010 -2.47553e-011 -5.36621e-011
287
root  -3.50043 41.6702 -2.00517 -2.99889 -86.7893 0.427765
RightUpLeg  -23.6073 -2.05383 0.67177
RightLeg  39.4966 -7.10264 -6.52048
RightFoot  16.1617 -3.66246 15.1625
RightToes  7.56698e-010 0 -3.6325e-017
Spine  15.8849 -2.52725 -3.54965
Spine1  4.09417 -5.06603 8.41006
HEad  -14.8787 24.4496 -12.8623
LeftShoulder1  3.09608 -11.5072 -13.6689
LeftArm  -35.5088 -37.8385 -38.8896
LeftForeArm  14.0915 -59.0027 -18.5646
LeftHand  -1.69166 -3.47415 22.168
RightShoulder  1.77888 5.33138 13.1821
RightArm  -28.9117 51.334 48.162
RightForeArm  6.43189 -1.2357 5.15512
RightHand  -2.01328 7.94842 -17.7084
LeftUpLeg  1.04275 -4.23614 -6.17369
LeftLeg  25.5898 3.71448 2.24732
LeftFoot  -3.48164 0.248988 -3.55325
LeftToes  -3.13779e-010 -2.47553e-011 -5.36621e-011
288
root  -4.04202 40.9437 -1.57169 154.383 -88.8295 -157.155
RightUpLeg  -26.6991 -3.0731 2.53719
RightLeg  34.9461 -3.02263 -2.47031
RightFoot  19.8214 -6.47192 23.5448
RightToes  7.56698e-010 0 -3.6325e-017
Spine  14.5196 -2.01979 -4.3924
Spine1  3.3372 -4.71893 9.78767
HEad  -15.0889 28.0268 -15.4935
LeftShoulder1  2.91286 -10.8097 -13.369
LeftArm  -43.6738 -36.7897 -33.4437
LeftForeArm  46.1831 -76.906 -55.0971
LeftHand  -1.2594 -1.39753 21.5736
RightShoulder  1.93152 5.6079 14.3587
RightArm  -27.7953 46.0969 48.3983
RightForeArm  8.11468 11.1003 6.28153
RightHand  -2.33883 8.74722 -19.3639
LeftUpLeg  8.84671 -0.818637 -7.1256
LeftLeg  24.9857 7.46628 4.28232
LeftFoot  -3.19223 0.140363 -1.67386
LeftToes  -3.13779e-010 -2.47553e-011 -5.36621e-011
289
root  -4.75435 39.8399 -1.29006 -173.088 -86.4645 170.857
RightUpLeg  -29.0126 -3.60544 4.4649
RightLeg  34.5658 -1.18881 -1.10481
RightFoot  20.2178 -6.45814 23.0699
RightToes  7.56698e-010 0 -3.6325e-017
Spine  12.2293 -2.3029 -6.33554
Spine1  2.43828 -5.71282 13.5498
HEad  -14.0665 31.9012 -18.3314
LeftShoulder1  2.77683 -10.1321 -13.3817
LeftArm  -50.7572 -34.1333 -27.4631
LeftForeArm  124.224 -74.7659 -137.131
LeftHand  -0.897307 0.642404 21.8879
RightShoulder  2.05494 5.79293 15.3549
RightArm  -21.227 41.661 50.2366
RightForeArm  3.06106 24.2067 5.22622
RightHand  -2.54275 9.21947 -20.3497
LeftUpLeg  15.8211 3.29431 -6.28993
LeftLeg  21.0263 6.46398 4.28445
LeftFoot  -3.64083 0.245835 -3.39939
LeftToes  -3.13779e-010 -2.47553e-011 -5.36621e-011
290
root  -5.25186 38.5502 -1.24921 -153.62 -87.0945 152.092
RightUpLeg  -30.443 -3.63781 5.27237
RightLeg  37.7635 -1.45704 -1.49417
RightFoot  13.6381 -2.88027 12.8373
RightToes  7.56698e-010 0 -3.6325e-017
Spine  10.4558 -3.35607 -9.15884
Spine1  1.5157 -7.73088 17.9997
HEad  -12.5087 33.8109 -19.1472
LeftShoulder1  2.49567 -9.18281 -12.6099
LeftArm  -55.3421 -32.996 -22.8194
LeftForeArm  143.908 -64.7071 -156.998
LeftHand  -0.651365 1.99846 22.1123
RightShoulder  2.14131 5.68659 16.6676
RightArm  -25.7354 37.1784 51.6995
RightForeArm  8.8125 36.6046 7.83096
RightHand  -2.3336 8.73602 -19.3131
LeftUpLeg  19.9652 4.28447 -4.12619
LeftLeg  18.3767 -1.50832 1.48782
LeftFoot  -7.29221 0.242797 -5.76687
LeftToes  -3.13779e-010 -2.47553e-011 -5.36621e-011
291
root  -5.4965 37.2381 -1.29143 -111.463 -88.0165 110.089
RightUpLeg  -31.0703 -3.35254 5.77173
RightLeg  42.1291 -3.96459 -4.14115
RightFoot  2.29205 0.0529015 -0.107219
RightToes  7.56698e-010 0 -3.6325e-017
Spine  9.35684 -3.79162 -10.494
Spine1  1.45418 -8.59089 19.3912
HEad  -11.7291 31.5766 -18.1961
LeftShoulder1  2.17255 -8.26521 -11.2874
LeftArm  -56.9807 -35.4521 -20.747
LeftForeArm  149.518 -62.3032 -159.27
LeftHand  -0.555741 2.39656 21.3969
RightShoulder  2.17104 5.33898 18.031
RightArm  -29.7279 33.3516 51.5133
RightForeArm  13.1834 48.0297 11.4797
RightHand  -1.86449 7.36791 -17.1751
LeftUpLeg  21.0722 0.216667 -4.25887
LeftLeg  20.1898 -8.18895 -1.53193
LeftFoot  -15.3513 -0.0792701 -5.63905
LeftToes  -3.13779e-010 -2.47553e-011 -5.36621e-011
292
root  -5.60564 36.285 -1.1882 -109.817 -87.6384 107.856
RightUpLeg  -31.4357 -1.95596 6.38675
RightLeg  45.821 -6.45193 -7.34368
RightFoot  -6.38948 0.270436 -6.00425
RightToes  7.56698e-010 0 -3.6325e-017
Spine  8.4668 -2.82013 -8.43316
Spine1  3.09383 -7.29772 16.6562
HEad  -12.6646 26.3306 -18.5231
LeftShoulder1  2.09684 -7.98104 -11.0562
LeftArm  -56.1001 -38.6183 -21.1323
LeftForeArm  148.198 -66.5702 -154.895
LeftHand  -0.608662 2.02738 20.88
RightShoulder  2.13786 4.98849 18.7023
RightArm  -32.4451 32.6189 48.9557
RightForeArm  13.9099 52.153 13.3365
RightHand  -1.65497 6.47136 -16.4199
LeftUpLeg  21.1258 -4.82337 -7.63067
LeftLeg  24.025 -4.34739 -1.5295
LeftFoot  -23.13 -0.267364 -3.77032
LeftToes  -3.13779e-010 -2.47553e-011 -5.36621e-011
